<svg xmlns="http://www.w3.org/2000/svg" width="96" height="96" fill="none" viewBox="0 0 96 96" id="cv">
  <path fill="url(#paint0_linear_561_5841)" fill-rule="evenodd" d="M21.5 19C21.5 15.4102 24.4102 12.5 28 12.5H56.5V25C56.5 28.0376 58.9624 30.5 62 30.5H73.5V77C73.5 80.5899 70.5899 83.5 67 83.5H28C24.4101 83.5 21.5 80.5899 21.5 77V19ZM71.9608 25.5L69.3301 22.6234L61.5 14.8136V25C61.5 25.2761 61.7239 25.5 62 25.5H71.9608ZM28 7.5C21.6487 7.5 16.5 12.6487 16.5 19V77C16.5 83.3513 21.6487 88.5 28 88.5H67C73.3513 88.5 78.5 83.3513 78.5 77V28.9304C78.5 26.5574 77.6119 24.2703 76.0104 22.5191L72.9811 19.2067L72.9423 19.1644L72.9017 19.1238L64.0287 10.2738C62.2478 8.49752 59.8352 7.5 57.3199 7.5H28ZM27.5 59C27.5 57.6193 28.6193 56.5 30 56.5H65C66.3807 56.5 67.5 57.6193 67.5 59C67.5 60.3807 66.3807 61.5 65 61.5H30C28.6193 61.5 27.5 60.3807 27.5 59ZM30 68.5C28.6193 68.5 27.5 69.6193 27.5 71C27.5 72.3807 28.6193 73.5 30 73.5H36.6331C38.0138 73.5 39.1331 72.3807 39.1331 71C39.1331 69.6193 38.0138 68.5 36.6331 68.5H30ZM48 68.5C46.6193 68.5 45.5 69.6193 45.5 71C45.5 72.3807 46.6193 73.5 48 73.5H66C67.3807 73.5 68.5 72.3807 68.5 71C68.5 69.6193 67.3807 68.5 66 68.5H48ZM31.7143 48.7021C29.4563 48.5253 27.2426 46.5277 27.68 43.7617C28.408 39.1585 31.2847 35.2677 35.2518 33.1691C34.1531 31.7368 33.5 29.9447 33.5 28C33.5 23.3056 37.3056 19.5 42 19.5C46.6944 19.5 50.5 23.3056 50.5 28C50.5 29.9447 49.8469 31.7368 48.7482 33.1691C52.7153 35.2677 55.592 39.1585 56.32 43.7617C56.7574 46.5277 54.5437 48.5253 52.2857 48.7021C45.4391 49.2383 38.5609 49.2383 31.7143 48.7021ZM42 31.5C43.933 31.5 45.5 29.933 45.5 28C45.5 26.067 43.933 24.5 42 24.5C40.067 24.5 38.5 26.067 38.5 28C38.5 29.933 40.067 31.5 42 31.5ZM42 36.5C37.5478 36.5 33.7951 39.5881 32.7742 43.7681C38.9166 44.2164 45.0834 44.2164 51.2258 43.7681C50.2049 39.5881 46.4522 36.5 42 36.5Z" clip-rule="evenodd"></path>
  <defs>
    <linearGradient id="paint0_linear_561_5841" x1="47.5" x2="47.5" y1="7.5" y2="88.5" gradientUnits="userSpaceOnUse">
      <stop stop-color="#00A3FF"></stop>
      <stop offset="1" stop-color="#4100AB"></stop>
    </linearGradient>
  </defs>
</svg>