<svg xmlns="http://www.w3.org/2000/svg" viewBox="0 0 24 24" id="email">
  <rect width="19.5" height="15.5" x="2.25" y="4.25" fill="#ffd15b" rx="2.75" ry="2.75"></rect>
  <path fill="#ff9f69" d="M15.53 12.47c-.293-.293-.768-.293-1.061 0s-.293.768 0 1.061l5.861 5.861c.446-.249.811-.615 1.061-1.061l-5.861-5.861zM9.53 12.47c-.293-.293-.768-.293-1.061 0l-5.861 5.861c.249.446.615.811 1.061 1.061l5.861-5.861c.293-.293.293-.768 0-1.061z"></path>
  <path fill="#ff9f69" d="m21.75,7c0-1.517-1.233-2.75-2.75-2.75H5c-1.517,0-2.75,1.233-2.75,2.75v.587l8.062,7.049c.493.384,1.082.577,1.677.577.605,0,1.216-.201,1.734-.605l8.027-7.056v-.553Z"></path>
</svg>